<svg width="182" height="80" viewBox="0 0 182 80" fill="none" xmlns="http://www.w3.org/2000/svg">
<path d="M13.3953 42.272V50.624C13.3953 51.904 13.5233 52.848 13.7793 53.456C14.0673 54.032 14.5473 54.416 15.2193 54.608C15.9233 54.8 17.0273 54.912 18.5313 54.944V56C14.5953 55.904 11.6673 55.856 9.74725 55.856C8.14725 55.856 6.13125 55.888 3.69925 55.952L2.16325 56V55.04C3.21925 54.976 3.98725 54.848 4.46725 54.656C4.97925 54.464 5.31525 54.096 5.47525 53.552C5.66725 53.008 5.76325 52.128 5.76325 50.912V27.104C5.76325 25.888 5.66725 25.008 5.47525 24.464C5.31525 23.92 4.97925 23.552 4.46725 23.36C3.98725 23.168 3.21925 23.04 2.16325 22.976V22.016C3.79525 22.112 6.22725 22.16 9.45925 22.16L14.7873 22.112C15.4273 22.08 16.1633 22.064 16.9953 22.064C21.3153 22.064 24.6113 22.928 26.8833 24.656C29.1553 26.352 30.2913 28.64 30.2913 31.52C30.2913 33.28 29.8433 34.976 28.9473 36.608C28.0513 38.208 26.5313 39.552 24.3873 40.64C22.2753 41.728 19.4593 42.272 15.9393 42.272H13.3953ZM16.3713 22.976C15.5073 22.976 14.8673 23.088 14.4513 23.312C14.0673 23.536 13.7953 23.936 13.6353 24.512C13.4753 25.088 13.3953 25.952 13.3953 27.104V41.312H15.4593C18.0513 41.312 19.8433 40.48 20.8353 38.816C21.8273 37.152 22.3233 34.896 22.3233 32.048C22.3233 28.944 21.8593 26.656 20.9313 25.184C20.0353 23.712 18.5153 22.976 16.3713 22.976ZM48.9453 30.512C50.3853 30.512 51.4733 30.944 52.2093 31.808C52.9453 32.672 53.3133 33.712 53.3133 34.928C53.3133 36.112 52.9613 37.088 52.2573 37.856C51.5853 38.592 50.6893 38.96 49.5693 38.96C48.4813 38.96 47.6173 38.688 46.9773 38.144C46.3373 37.568 46.0173 36.816 46.0173 35.888C46.0173 34.352 46.7213 33.104 48.1293 32.144C48.0013 32.112 47.8093 32.096 47.5533 32.096C47.2333 32.096 46.9773 32.128 46.7853 32.192C45.5693 32.384 44.5293 33.12 43.6653 34.4C42.8333 35.68 42.4173 36.992 42.4173 38.336V51.056C42.4173 52.528 42.7693 53.552 43.4733 54.128C44.2093 54.704 45.3613 54.992 46.9293 54.992V56C46.4813 56 46.1133 55.984 45.8253 55.952C42.5613 55.856 40.3853 55.808 39.2973 55.808C38.4333 55.808 36.4653 55.856 33.3933 55.952C33.1373 55.984 32.8173 56 32.4333 56V54.992C33.5853 54.992 34.3853 54.752 34.8333 54.272C35.2813 53.76 35.5053 52.848 35.5053 51.536V36.416C35.5053 34.944 35.2813 33.872 34.8333 33.2C34.3853 32.528 33.5853 32.192 32.4333 32.192V31.184C33.4573 31.28 34.4493 31.328 35.4093 31.328C38.2573 31.328 40.5933 31.104 42.4173 30.656V35.12C43.0253 33.744 43.9053 32.64 45.0573 31.808C46.2093 30.944 47.5053 30.512 48.9453 30.512ZM66.5673 30.512C70.2473 30.512 73.1273 31.568 75.2073 33.68C77.2873 35.76 78.3273 39.072 78.3273 43.616C78.3273 48.16 77.2873 51.472 75.2073 53.552C73.1273 55.632 70.2473 56.672 66.5673 56.672C62.9193 56.672 60.0393 55.632 57.9273 53.552C55.8473 51.472 54.8073 48.16 54.8073 43.616C54.8073 39.072 55.8473 35.76 57.9273 33.68C60.0393 31.568 62.9193 30.512 66.5673 30.512ZM66.5673 31.472C65.1913 31.472 64.0873 32.48 63.2553 34.496C62.4553 36.48 62.0553 39.52 62.0553 43.616C62.0553 47.712 62.4553 50.752 63.2553 52.736C64.0873 54.72 65.1913 55.712 66.5673 55.712C67.9753 55.712 69.0793 54.736 69.8793 52.784C70.6793 50.8 71.0793 47.744 71.0793 43.616C71.0793 39.488 70.6633 36.432 69.8313 34.448C69.0313 32.464 67.9433 31.472 66.5673 31.472ZM79.0679 64.16C80.6679 64.096 81.9159 63.456 82.8119 62.24C83.7399 61.024 84.2039 59.232 84.2039 56.864V36.416C84.2039 34.944 83.9639 33.872 83.4839 33.2C83.0359 32.528 82.2519 32.192 81.1319 32.192V31.184C82.1559 31.28 83.1479 31.328 84.1079 31.328C86.8919 31.328 89.2279 31.104 91.1159 30.656V51.488C91.1159 54.176 90.8439 56.384 90.2999 58.112C89.7879 59.84 88.9079 61.28 87.6599 62.432C85.7719 64.16 82.9079 65.024 79.0679 65.024V64.16ZM87.1319 18.8C88.4759 18.8 89.5319 19.136 90.2999 19.808C91.0999 20.448 91.4999 21.344 91.4999 22.496C91.4999 23.648 91.0999 24.56 90.2999 25.232C89.5319 25.872 88.4759 26.192 87.1319 26.192C85.7879 26.192 84.7159 25.872 83.9159 25.232C83.1479 24.56 82.7639 23.648 82.7639 22.496C82.7639 21.344 83.1479 20.448 83.9159 19.808C84.7159 19.136 85.7879 18.8 87.1319 18.8ZM109.686 52.736C112.31 52.736 114.422 51.456 116.022 48.896L116.886 49.184C116.246 51.264 115.094 53.04 113.43 54.512C111.798 55.952 109.75 56.672 107.286 56.672C103.894 56.672 101.19 55.6 99.1739 53.456C97.1899 51.28 96.1979 48.08 96.1979 43.856C96.1979 39.536 97.2699 36.24 99.4139 33.968C101.558 31.664 104.406 30.512 107.958 30.512C113.974 30.512 116.982 34.064 116.982 41.168H103.494C103.462 41.648 103.446 42.4 103.446 43.424C103.446 45.536 103.734 47.296 104.31 48.704C104.918 50.112 105.686 51.136 106.614 51.776C107.574 52.416 108.598 52.736 109.686 52.736ZM107.67 31.52C106.518 31.52 105.558 32.24 104.79 33.68C104.054 35.088 103.59 37.28 103.398 40.256H110.934C110.998 37.728 110.742 35.648 110.166 34.016C109.622 32.352 108.79 31.52 107.67 31.52ZM132.241 30.512C133.425 30.512 134.545 30.64 135.601 30.896C136.657 31.152 137.537 31.504 138.241 31.952C139.073 32.464 139.713 33.12 140.161 33.92C140.641 34.688 140.881 35.536 140.881 36.464C140.881 37.584 140.529 38.512 139.825 39.248C139.121 39.952 138.209 40.304 137.089 40.304C135.969 40.304 135.073 39.984 134.401 39.344C133.729 38.704 133.393 37.84 133.393 36.752C133.393 35.792 133.697 34.96 134.305 34.256C134.913 33.552 135.665 33.072 136.561 32.816C136.305 32.464 135.905 32.192 135.361 32C134.849 31.776 134.289 31.664 133.681 31.664C131.761 31.664 130.257 32.72 129.169 34.832C128.113 36.912 127.585 39.648 127.585 43.04C127.585 46.464 128.193 48.928 129.409 50.432C130.625 51.936 132.145 52.688 133.969 52.688C135.057 52.688 136.145 52.4 137.233 51.824C138.353 51.248 139.361 50.24 140.257 48.8L141.073 49.088C140.433 51.168 139.313 52.96 137.713 54.464C136.113 55.936 134.049 56.672 131.521 56.672C128.225 56.672 125.537 55.584 123.457 53.408C121.377 51.232 120.337 48 120.337 43.712C120.337 40.896 120.849 38.496 121.873 36.512C122.897 34.528 124.305 33.04 126.097 32.048C127.889 31.024 129.937 30.512 132.241 30.512ZM153.318 31.184H158.982V32.144H153.318V51.536C153.318 52.496 153.478 53.184 153.798 53.6C154.15 53.984 154.694 54.176 155.43 54.176C156.806 54.176 157.894 53.216 158.694 51.296L159.51 51.728C158.294 55.024 156.102 56.672 152.934 56.672C150.822 56.672 149.222 56.128 148.134 55.04C147.462 54.368 146.998 53.536 146.742 52.544C146.518 51.52 146.406 50.128 146.406 48.368V32.144H142.374V31.184H146.406V24.848C149.062 24.848 151.366 24.336 153.318 23.312V31.184ZM169.953 30.512C171.169 30.512 172.289 30.672 173.313 30.992C174.337 31.28 175.121 31.616 175.665 32C175.985 32.224 176.273 32.336 176.529 32.336C176.817 32.336 177.057 32.192 177.249 31.904C177.473 31.584 177.617 31.136 177.681 30.56H178.689C178.561 32.192 178.497 35.008 178.497 39.008H177.489C177.201 36.896 176.561 35.136 175.569 33.728C174.609 32.288 173.201 31.568 171.345 31.568C170.385 31.568 169.585 31.84 168.945 32.384C168.337 32.928 168.033 33.68 168.033 34.64C168.033 35.728 168.401 36.672 169.137 37.472C169.873 38.24 171.025 39.184 172.593 40.304L173.985 41.312C175.937 42.784 177.377 44.096 178.305 45.248C179.233 46.4 179.697 47.84 179.697 49.568C179.697 50.976 179.281 52.224 178.449 53.312C177.649 54.4 176.561 55.232 175.185 55.808C173.809 56.384 172.289 56.672 170.625 56.672C168.865 56.672 167.361 56.336 166.113 55.664C165.089 55.152 164.353 54.816 163.905 54.656C163.585 54.56 163.297 54.672 163.041 54.992C162.817 55.28 162.641 55.728 162.513 56.336H161.505C161.633 54.512 161.697 51.312 161.697 46.736H162.705C163.345 52.624 165.505 55.568 169.185 55.568C170.113 55.568 170.897 55.296 171.537 54.752C172.209 54.176 172.545 53.312 172.545 52.16C172.545 51.264 172.337 50.464 171.921 49.76C171.537 49.056 171.041 48.432 170.433 47.888C169.825 47.344 168.913 46.592 167.697 45.632C166.257 44.48 165.153 43.552 164.385 42.848C163.649 42.144 163.009 41.312 162.465 40.352C161.953 39.392 161.697 38.32 161.697 37.136C161.697 35.088 162.497 33.472 164.097 32.288C165.697 31.104 167.649 30.512 169.953 30.512Z" fill="#25282B"/>
<rect x="41" y="76" width="100" height="4" rx="2" fill="#FDC435"/>
</svg>
